<svg xmlns="http://www.w3.org/2000/svg" width="1704.188" height="1706.689" viewBox="0 0 1704.188 1706.689">
  <g id="Layer_x0020_1" transform="translate(-314.57 -313.32)">
    <path id="Path_104" data-name="Path 104" d="M1384.15,1115.62a308.946,308.946,0,0,0,86.64,17.54v698.65h-86.64V1115.62Zm113.31,769.53a26.669,26.669,0,0,0,26.67-26.67V1106.75a26.676,26.676,0,0,0-27-26.33c-26.26,3.76-109.6-8.63-113.51-22.14l-6.43-2.88c-1.83-1.07-3.87-1.84-5.56-2.69a26.666,26.666,0,0,0-40.81,22.61v783.16a26.669,26.669,0,0,0,26.67,26.67h139.98Z" fill="#250e1e" fill-rule="evenodd"/>
    <path id="Path_105" data-name="Path 105" d="M341.24,743.01h859.01a26.659,26.659,0,0,1,26.21,31.59A268.682,268.682,0,0,0,1237,897.32a265.482,265.482,0,0,0,64.81,104.99,264.614,264.614,0,0,0,67.75,49.27l.01-.02a26.673,26.673,0,0,1,14.58,24.04v917.74a26.669,26.669,0,0,1-26.67,26.67H341.24a26.669,26.669,0,0,1-26.67-26.67V769.69a26.669,26.669,0,0,1,26.67-26.67Zm829.55,53.34H367.91V1966.66h962.91v-875.5a320.157,320.157,0,0,1-160.04-294.82Z" fill="#250e1e"/>
    <path id="Path_106" data-name="Path 106" d="M492.71,1043.11a26.67,26.67,0,0,0,0,53.34H890.25a26.67,26.67,0,0,0,0-53.34Z" fill="#250e1e"/>
    <path id="Path_107" data-name="Path 107" d="M492.71,1250.93a26.67,26.67,0,0,0,0,53.34H890.25a26.67,26.67,0,0,0,0-53.34Z" fill="#250e1e"/>
    <path id="Path_108" data-name="Path 108" d="M492.71,1458.74a26.67,26.67,0,0,0,0,53.34H890.25a26.67,26.67,0,0,0,0-53.34Z" fill="#250e1e"/>
    <path id="Path_109" data-name="Path 109" d="M492.71,1666.56a26.67,26.67,0,0,0,0,53.34H890.25a26.67,26.67,0,0,0,0-53.34Z" fill="#250e1e"/>
    <g id="Group_1" data-name="Group 1">
      <path id="Path_110" data-name="Path 110" d="M1349.28,526.14a319.553,319.553,0,0,1,100.18-30.15l-.01-.1a26.667,26.667,0,0,1,29.86,23.04,26.25,26.25,0,0,1,.22,3.41V600.4c35.8,58.87,83.93,102.65,144.96,134.17a391.5,391.5,0,0,0,51.61-31.88,346.247,346.247,0,0,0,52.61-47.45v-.06A26.685,26.685,0,0,1,1773,662.5a320.355,320.355,0,0,1-55.93,377.52h0a320.294,320.294,0,0,1-452.96,0h0l-.01-.01a319.283,319.283,0,0,1-93.81-226.47c0-5.76.15-11.48.46-17.19H481.23a26.669,26.669,0,0,1-26.67-26.67V634.82a26.669,26.669,0,0,1,26.67-26.67h763.55a320.61,320.61,0,0,1,104.51-82.02ZM1171.11,790.4q.39-5.5.98-10.97C1171.7,783.07,1171.38,786.73,1171.11,790.4Zm2.44-22.69q.78-5.415,1.74-10.78Q1174.33,762.285,1173.55,767.71Zm1.74-10.8A319.171,319.171,0,0,1,1210.51,658l-1.92,3.5-700.71-.02V743h670.21q-1.56,6.9-2.81,13.91Zm46.7-117.96q1.38-2.115,2.78-4.2C1223.83,636.14,1222.9,637.55,1221.99,638.95Zm6.21-9.19q3.03-4.32,6.19-8.53Q1231.225,625.445,1228.2,629.76Zm6.52-8.97q1.47-1.95,2.97-3.87Q1236.19,618.84,1234.72,620.79Zm3.21-4.18c2.21-2.82,4.46-5.62,6.76-8.37C1242.39,610.99,1240.14,613.79,1237.93,616.61ZM1172.1,779.28q.3-2.82.65-5.63Zm.67-5.72c.23-1.84.47-3.67.74-5.51Zm37.77-115.59q2.67-4.8,5.49-9.49Zm5.56-9.6q2.8-4.665,5.77-9.22Zm8.81-13.82c1.02-1.52,2.06-3.02,3.11-4.52Zm147.7-60.7c-90.53,44.52-148.99,137.81-148.99,239.69a266.136,266.136,0,0,0,78.18,188.76l.01.01h0a266.964,266.964,0,0,0,377.54,0h0a265.626,265.626,0,0,0,75.46-150.29,268.462,268.462,0,0,0-14.47-133.15,407.563,407.563,0,0,1-32.8,26.75,448.734,448.734,0,0,1-69.36,41.5,26.638,26.638,0,0,1-25.24,1.17l.05-.09c-77.9-37.41-138.18-90.89-182.14-165.52a26.576,26.576,0,0,1-4.67-15.07v-53.3a265.77,265.77,0,0,0-53.58,19.54Z" fill="#250e1e"/>
    </g>
    <path id="Path_111" data-name="Path 111" d="M1717.07,1002.31a26.665,26.665,0,1,0-37.71,37.71l293.88,293.88a26.665,26.665,0,0,0,37.71-37.71l-293.88-293.88Z" fill="#250e1e"/>
    <path id="Path_112" data-name="Path 112" d="M1624.48,734.58a373.557,373.557,0,0,0,80.02-55.06,354.292,354.292,0,0,0,64.94-79.11V433.86a97.746,97.746,0,0,1-67.18-67.19H1546.71a97.735,97.735,0,0,1-67.19,67.19V600.41c35.8,58.88,83.92,102.64,144.96,134.18Zm115.85-15.69c-29.81,27.05-63.81,49.59-102.11,68.21a26.634,26.634,0,0,1-25.28,1.19l.05-.1c-38.24-18.36-72.3-40.68-102.31-67.55-.7-.52-1.39-1.09-2.05-1.69v-.06a408.792,408.792,0,0,1-77.78-96.22,26.576,26.576,0,0,1-4.67-15.07V410.87a26.669,26.669,0,0,1,26.67-26.67,44.18,44.18,0,0,0,44.21-44.21,26.669,26.669,0,0,1,26.67-26.67h201.5a26.669,26.669,0,0,1,26.67,26.67,44.18,44.18,0,0,0,44.2,44.21,26.669,26.669,0,0,1,26.67,26.67V607.6a26.643,26.643,0,0,1-3.63,13.43l-.06-.03c-22.05,37.79-48.26,70.21-78.76,97.89Z" fill="#250e1e"/>
    <path id="Path_113" data-name="Path 113" d="M1575.26,538.83a26.665,26.665,0,0,0-37.71,37.71l41.69,41.69h0a26.683,26.683,0,0,0,37.72,0l.32-.33,94.16-94.16a26.665,26.665,0,0,0-37.71-37.71l-75.63,75.63-22.83-22.83Z" fill="#250e1e"/>
  </g>
</svg>